<svg width="95" height="96" viewBox="0 0 95 96" fill="none" xmlns="http://www.w3.org/2000/svg">
<rect width="95" height="95" transform="translate(0 0.5)" fill="white"/>
<path d="M42.0668 11.5131C45.5729 8.84623 50.4275 8.84623 53.9336 11.5131C55.9796 13.0693 58.5551 13.7594 61.1052 13.4347C65.475 12.8782 69.6792 15.3055 71.3821 19.3681C72.3759 21.7388 74.2613 23.6243 76.6321 24.618C80.6947 26.321 83.122 30.5252 82.5655 34.895C82.2407 37.445 82.9308 40.0205 84.4871 42.0666C87.1539 45.5727 87.1539 50.4273 84.4871 53.9334C82.9308 55.9794 82.2407 58.5549 82.5655 61.1049C83.122 65.4747 80.6947 69.6789 76.6321 71.3819C74.2613 72.3757 72.3759 74.2611 71.3821 76.6318C69.6792 80.6944 65.475 83.1217 61.1052 82.5652C58.5551 82.2405 55.9796 82.9306 53.9336 84.4868C50.4275 87.1537 45.5729 87.1537 42.0668 84.4868C40.0208 82.9306 37.4453 82.2405 34.8952 82.5652C30.5254 83.1217 26.3212 80.6944 24.6183 76.6318C23.6245 74.2611 21.7391 72.3757 19.3683 71.3819C15.3057 69.6789 12.8784 65.4747 13.4349 61.1049C13.7597 58.5549 13.0696 55.9794 11.5133 53.9334C8.84647 50.4273 8.84647 45.5727 11.5133 42.0666C13.0696 40.0205 13.7597 37.445 13.4349 34.895C12.8784 30.5252 15.3057 26.321 19.3683 24.618C21.7391 23.6243 23.6245 21.7388 24.6183 19.3681C26.3212 15.3055 30.5254 12.8782 34.8952 13.4347C37.4453 13.7594 40.0208 13.0693 42.0668 11.5131Z" fill="#E40032"/>
<path d="M78 48C78 64.5685 64.5685 78 48 78C31.4315 78 18 64.5685 18 48C18 31.4315 31.4315 18 48 18C64.5685 18 78 31.4315 78 48Z" fill="white"/>
<path d="M76 48C76 63.464 63.464 76 48 76C32.536 76 20 63.464 20 48C20 32.536 32.536 20 48 20C63.464 20 76 32.536 76 48Z" fill="#E40032"/>
<path d="M47.9998 26L53.9482 40.4907L69.8741 41.5471L57.6245 51.5593L61.5189 66.7029L47.9998 58.4L34.4807 66.7029L38.3751 51.5593L26.1255 41.5471L42.0514 40.4907L47.9998 26Z" fill="white"/>
</svg>
