<svg width="96" height="95" viewBox="0 0 96 95" fill="none" xmlns="http://www.w3.org/2000/svg">
<rect x="0.5" width="95" height="95" rx="4" fill="white"/>
<path d="M27.5 41L43.5 50V68L27.5 77L11.5 68V50L27.5 41Z" fill="#E40032"/>
<path d="M61.5 41L77.5 50V68L61.5 77L45.5 68V50L61.5 41Z" fill="#E40032"/>
<path d="M44.5 12L60.5 21V39L44.5 48L28.5 39V21L44.5 12Z" fill="#E40032"/>
<path d="M43.5 23H45.5V37H43.5V23Z" fill="white"/>
<path d="M51.0625 32.634L50.0625 34.366L37.9381 27.366L38.9381 25.634L51.0625 32.634Z" fill="white"/>
<path d="M37.9375 32.634L38.9375 34.366L51.0619 27.366L50.0619 25.634L37.9375 32.634Z" fill="white"/>
<path d="M23.4874 56.6176L27.5 51L31.5126 56.6176C32.1548 57.5167 32.5 58.594 32.5 59.6988V60C32.5 62.7614 30.2614 65 27.5 65C24.7386 65 22.5 62.7614 22.5 60V59.6988C22.5 58.594 22.8452 57.5167 23.4874 56.6176Z" fill="white"/>
<path d="M62.5 57L65.5 51H61.5L56.5 61H60.5L57.5 67H61.5L66.5 57H62.5Z" fill="white"/>
</svg>
