<svg width="95" height="95" viewBox="0 0 95 95" fill="none" xmlns="http://www.w3.org/2000/svg">
<rect width="95" height="95" rx="4" fill="white"/>
<path d="M72 27.5882L48 21V77L60.4 69.5173C67.5993 65.1728 72 57.3774 72 48.9688V27.5882Z" fill="#E40032"/>
<path d="M24 27.5882L48 21V77L35.6 69.5173C28.4007 65.1728 24 57.3774 24 48.9688V27.5882Z" fill="#E40032"/>
<path d="M60 47C60 53.6274 54.6274 59 48 59C41.3726 59 36 53.6274 36 47C36 40.3726 41.3726 35 48 35C54.6274 35 60 40.3726 60 47Z" fill="white"/>
<path d="M48 33H62V47H48V33Z" fill="#E40032"/>
<path fill-rule="evenodd" clip-rule="evenodd" d="M48 57C53.5228 57 58 52.5228 58 47C58 41.4772 53.5228 37 48 37C42.4772 37 38 41.4772 38 47C38 52.5228 42.4772 57 48 57ZM48 59C54.6274 59 60 53.6274 60 47C60 40.3726 54.6274 35 48 35C41.3726 35 36 40.3726 36 47C36 53.6274 41.3726 59 48 59Z" fill="white"/>
</svg>
