<svg width="96" height="95" viewBox="0 0 96 95" fill="none" xmlns="http://www.w3.org/2000/svg">
<rect x="0.667969" width="95" height="95" rx="4" fill="white"/>
<path d="M44 18H18V44H27V40C27 37.7909 28.7909 36 31 36C33.2091 36 35 37.7909 35 40V44H44V18Z" fill="#E40032"/>
<path d="M48 27C50.2091 27 52 28.7909 52 31C52 33.2091 50.2091 35 48 35H44V27H48Z" fill="#E40032"/>
<path d="M78 44V18L52 18V27H56C58.2091 27 60 28.7909 60 31C60 33.2091 58.2091 35 56 35H52V44L78 44Z" fill="#E40032"/>
<path d="M69 48C69 50.2091 67.2091 52 65 52C62.7909 52 61 50.2091 61 48V44H69V48Z" fill="#E40032"/>
<path d="M52 78L78 78L78 52H69V56C69 58.2091 67.2091 60 65 60C62.7909 60 61 58.2091 61 56V52L52 52L52 78Z" fill="#E40032"/>
<path d="M48 69C45.7909 69 44 67.2091 44 65C44 62.7909 45.7909 61 48 61H52V69H48Z" fill="#E40032"/>
<path d="M18 52L18 78L44 78L44 69H40C37.7909 69 36 67.2091 36 65C36 62.7909 37.7909 61 40 61H44L44 52L18 52Z" fill="#E40032"/>
<path d="M27 48C27 45.7909 28.7909 44 31 44C33.2091 44 35 45.7909 35 48V52L27 52L27 48Z" fill="#E40032"/>
</svg>
