<svg width="96" height="95" viewBox="0 0 96 95" fill="none" xmlns="http://www.w3.org/2000/svg">
<rect x="0.332031" width="95" height="95" rx="4" fill="white"/>
<path d="M58.0526 45L39 34L15 75.5692L26.5263 77.6051L34.0526 86.5692L58.0526 45Z" fill="#E40032"/>
<path d="M37.9982 45L57.0508 34L81.0508 75.5692L69.5245 77.6051L61.9982 86.5692L37.9982 45Z" fill="#E40032"/>
<path d="M48.6562 9.24429L48.0013 8.67674L47.3464 9.24429L39.3343 16.1877L28.7336 16.0188L27.8671 16.005L27.7302 16.8607L26.0557 27.3297L17.8265 34.0144L17.1539 34.5608L17.5991 35.3043L23.0457 44.4003L21.0386 54.8107L20.8745 55.6616L21.6935 55.945L31.7127 59.412L36.8668 68.6769L37.2881 69.4342L38.0976 69.1249L48.0013 65.3405L57.9049 69.1249L58.7145 69.4342L59.1358 68.6769L64.2898 59.412L74.309 55.945L75.128 55.6616L74.9639 54.8107L72.9568 44.4003L78.4035 35.3043L78.8487 34.5608L78.176 34.0144L69.9468 27.3297L68.2723 16.8607L68.1355 16.005L67.269 16.0188L56.6682 16.1877L48.6562 9.24429Z" fill="white" stroke="white" stroke-width="2"/>
<path d="M48 10L56.3008 17.1937L67.2836 17.0187L69.0184 27.865L77.5442 34.7906L71.9013 44.2144L73.9808 55L63.6005 58.5919L58.2606 68.1908L48 64.27L37.7394 68.1908L32.3995 58.5919L22.0192 55L24.0987 44.2144L18.4558 34.7906L26.9816 27.865L28.7164 17.0187L39.6992 17.1937L48 10Z" fill="#E40032"/>
<circle cx="48.5" cy="39.5" r="18.5" fill="white"/>
<circle cx="48.5" cy="39.5" r="16.5" fill="#E40032"/>
</svg>
