<svg width="95" height="95" viewBox="0 0 95 95" fill="none" xmlns="http://www.w3.org/2000/svg">
<rect width="95" height="95" rx="4" fill="white"/>
<path d="M13 37C13 25.9543 21.9543 17 33 17C44.0457 17 53 25.9543 53 37C53 48.0457 44.0457 57 33 57C21.9543 57 13 48.0457 13 37Z" fill="#E40032"/>
<path fill-rule="evenodd" clip-rule="evenodd" d="M33 18C22.5066 18 14 26.5066 14 37C14 47.4934 22.5066 56 33 56C43.4934 56 52 47.4934 52 37C52 26.5066 43.4934 18 33 18ZM33 17C21.9543 17 13 25.9543 13 37C13 48.0457 21.9543 57 33 57C44.0457 57 53 48.0457 53 37C53 25.9543 44.0457 17 33 17Z" fill="white"/>
<path d="M40 37C40 25.9543 48.9543 17 60 17C71.0457 17 80 25.9543 80 37C80 48.0457 71.0457 57 60 57C48.9543 57 40 48.0457 40 37Z" fill="#E40032"/>
<path fill-rule="evenodd" clip-rule="evenodd" d="M60 18C49.5066 18 41 26.5066 41 37C41 47.4934 49.5066 56 60 56C70.4934 56 79 47.4934 79 37C79 26.5066 70.4934 18 60 18ZM60 17C48.9543 17 40 25.9543 40 37C40 48.0457 48.9543 57 60 57C71.0457 57 80 48.0457 80 37C80 25.9543 71.0457 17 60 17Z" fill="white"/>
<path d="M26 62C26 50.9543 34.9543 42 46 42C57.0457 42 66 50.9543 66 62C66 73.0457 57.0457 82 46 82C34.9543 82 26 73.0457 26 62Z" fill="#E40032"/>
<path fill-rule="evenodd" clip-rule="evenodd" d="M46 43C35.5066 43 27 51.5066 27 62C27 72.4934 35.5066 81 46 81C56.4934 81 65 72.4934 65 62C65 51.5066 56.4934 43 46 43ZM46 42C34.9543 42 26 50.9543 26 62C26 73.0457 34.9543 82 46 82C57.0457 82 66 73.0457 66 62C66 50.9543 57.0457 42 46 42Z" fill="white"/>
<path fill-rule="evenodd" clip-rule="evenodd" d="M33 19C23.0589 19 15 27.0589 15 37C15 45.056 20.2922 51.8759 27.5897 54.1727C29.9755 48.5682 34.8457 44.2757 40.8175 42.678C40.2855 40.8781 40 38.9724 40 37C40 31.8777 41.9257 27.2051 45.0925 23.6668C41.8972 20.767 37.6549 19 33 19ZM41.4829 44.5715C36.1431 45.9515 31.7644 49.7206 29.5549 54.6707C30.67 54.8868 31.8218 55 33 55C37.6549 55 41.8972 53.233 45.0925 50.3332C43.5823 48.6458 42.3543 46.7005 41.4829 44.5715ZM26.8992 56.0524C18.8371 53.473 13 45.9182 13 37C13 25.9543 21.9543 17 33 17C38.2032 17 42.9423 18.9869 46.5 22.2435C50.0577 18.9869 54.7968 17 60 17C71.0457 17 80 25.9543 80 37C80 46.2533 73.7159 54.0389 65.1825 56.322C65.7145 58.1219 66 60.0276 66 62C66 73.0457 57.0457 82 46 82C34.9543 82 26 73.0457 26 62C26 59.9289 26.3148 57.9313 26.8992 56.0524ZM63.22 56.7422C63.7272 58.4054 64 60.1708 64 62C64 71.9411 55.9411 80 46 80C36.0589 80 28 71.9411 28 62C28 60.106 28.2925 58.2803 28.8349 56.5657C30.1784 56.8503 31.5717 57 33 57C38.2032 57 42.9423 55.0131 46.5 51.7565C50.0577 55.0131 54.7968 57 60 57C61.0962 57 62.1717 56.9118 63.22 56.7422ZM64.5171 54.4285C72.272 52.4244 78 45.3811 78 37C78 27.0589 69.9411 19 60 19C55.3451 19 51.1029 20.767 47.9075 23.6668C51.0744 27.2051 53 31.8777 53 37C53 39.0711 52.6852 41.0687 52.1008 42.9475C57.7406 44.752 62.2915 48.9911 64.5171 54.4285ZM51.4103 44.8273C56.3979 46.3971 60.4488 50.0798 62.5135 54.8259C61.6922 54.9407 60.853 55 60 55C55.3451 55 51.1029 53.233 47.9075 50.3332C49.357 48.7137 50.5465 46.8565 51.4103 44.8273ZM49.4451 44.3293C48.6967 46.0061 47.6993 47.5474 46.5 48.9062C45.2638 47.5056 44.2421 45.911 43.4865 44.1741C44.3078 44.0593 45.147 44 46 44C47.1783 44 48.3301 44.1132 49.4451 44.3293ZM50.1651 42.4343C48.8216 42.1497 47.4283 42 46 42C44.9039 42 43.8283 42.0882 42.78 42.2578C42.2728 40.5946 42 38.8292 42 37C42 32.435 43.6994 28.2669 46.5 25.0938C49.3006 28.2669 51 32.435 51 37C51 38.894 50.7075 40.7197 50.1651 42.4343Z" fill="white"/>
</svg>
