<svg width="240" height="94" viewBox="0 0 240 94" fill="none" xmlns="http://www.w3.org/2000/svg">
<path d="M87.5179 9.68774L39.6143 30.7898V30.8857H135.325L87.5179 9.68774Z" fill="#E40032"/>
<path d="M23.8072 53.9061V37.3123L5.1084 45.5612L23.8072 53.9061Z" fill="#E40032"/>
<path d="M87.5179 81.8184L135.421 60.6204H39.6143L87.5179 81.8184Z" fill="#E40032"/>
<path d="M100.819 51.9878H83.5663V34.7224H78.7471V56.7837H105.735V34.7224H100.819V51.9878Z" fill="black"/>
<path d="M62.3613 39.3265H57.542V56.7837H62.4577V39.5184H75.8552V34.7224H62.3613V39.3265Z" fill="black"/>
<path d="M32.4824 26.0898H27.6631V56.7837H54.7474V34.7224H32.4824V26.0898ZM49.8318 39.5184V51.9877H32.4824V39.5184H49.8318Z" fill="black"/>
<path d="M170.313 56.7837H196.338V34.7224H170.313V56.7837ZM175.229 39.5184H191.518V51.9878H175.229V39.5184Z" fill="black"/>
<path d="M109.591 48.151H130.892V51.9878H109.591V56.7837H135.711V43.3551H114.41V39.5184H135.711V34.7224H109.591V48.151Z" fill="black"/>
<path d="M226.602 34.7224H219.855L213.012 42.1082L206.169 34.7224H199.422L209.638 45.7531L199.325 56.7837H206.072L212.916 49.398L219.759 56.7837H226.506L216.289 45.7531L226.602 34.7224Z" fill="black"/>
<path d="M144.386 26.0898H139.566V56.7837H166.458V34.7224H144.386V26.0898ZM161.542 39.5184V51.9877H144.386V39.5184H161.542Z" fill="black"/>
<path fill-rule="evenodd" clip-rule="evenodd" d="M229.302 30.0225H229.88C230.265 30.0225 230.555 30.1184 230.555 30.5021C230.555 30.6939 230.458 30.9816 229.976 30.9816H229.302V30.0225ZM228.723 32.7082V29.5429H230.169C230.555 29.5429 231.229 29.6388 231.229 30.4061C231.229 30.598 231.133 30.8857 230.747 31.1735C231.133 31.2694 231.133 31.6531 231.229 31.9408C231.229 32.4204 231.229 32.5163 231.326 32.7082H230.747C230.651 32.5163 230.651 32.5163 230.651 31.9408C230.651 31.6531 230.651 31.3653 229.976 31.3653H229.494V32.7082H228.723ZM227.278 31.0776C227.278 29.6388 228.434 28.4878 229.88 28.4878C231.326 28.4878 232.386 29.6388 232.386 31.0776C232.386 32.5163 231.229 33.6674 229.88 33.6674C228.434 33.7633 227.278 32.5163 227.278 31.0776ZM226.699 31.0776C226.699 32.8041 228.049 34.2429 229.88 34.2429C231.615 34.2429 232.964 32.8041 232.964 31.0776C232.964 29.351 231.615 28.0082 229.88 28.0082C228.049 28.0082 226.699 29.447 226.699 31.0776Z" fill="black"/>
</svg>
