<svg width="95" height="95" viewBox="0 0 95 95" fill="none" xmlns="http://www.w3.org/2000/svg">
<rect width="95" height="95" rx="4" fill="white"/>
<path d="M27 25C27 22.7909 28.7909 21 31 21H65C67.2091 21 69 22.7909 69 25V73H27V25Z" fill="#E40032"/>
<path d="M17 44C17 40.134 20.134 37 24 37C27.866 37 31 40.134 31 44V73H17V44Z" fill="#E40032"/>
<path d="M25 47H29V79H25V47Z" fill="#E40032"/>
<path d="M67 47H71V79H67V47Z" fill="#E40032"/>
<path d="M65 44C65 40.134 68.134 37 72 37C75.866 37 79 40.134 79 44V73H65V44Z" fill="#E40032"/>
<path d="M29 54.5C29 51.4624 31.4624 49 34.5 49H61.5C64.5376 49 67 51.4624 67 54.5C67 57.5376 64.5376 60 61.5 60H34.5C31.4624 60 29 57.5376 29 54.5Z" fill="white"/>
<path d="M29 58.5C29 54.9101 31.9101 52 35.5 52H60.5C64.0899 52 67 54.9101 67 58.5C67 62.0899 64.0899 65 60.5 65H35.5C31.9101 65 29 62.0899 29 58.5Z" fill="#E40032"/>
</svg>
