<svg width="95" height="95" viewBox="0 0 95 95" fill="none" xmlns="http://www.w3.org/2000/svg">
<rect width="95" height="95" fill="white"/>
<rect x="25" y="18" width="44" height="58" fill="#E40032"/>
<rect x="29" y="22" width="36" height="8" fill="white"/>
<path d="M29 44H35V48H29V44Z" fill="white"/>
<path d="M39 44H45V48H39V44Z" fill="white"/>
<path d="M49 44H55V48H49V44Z" fill="white"/>
<path d="M59 44H65V48H59V44Z" fill="white"/>
<path d="M29 52H35V56H29V52Z" fill="white"/>
<path d="M39 52H45V56H39V52Z" fill="white"/>
<path d="M49 52H55V56H49V52Z" fill="white"/>
<path d="M59 52H65V56H59V52Z" fill="white"/>
<path d="M29 60H35V64H29V60Z" fill="white"/>
<path d="M39 60H45V64H39V60Z" fill="white"/>
<path d="M49 60H55V64H49V60Z" fill="white"/>
<path d="M59 60H65V64H59V60Z" fill="white"/>
<path d="M29 68H35V72H29V68Z" fill="white"/>
<path d="M39 68H45V72H39V68Z" fill="white"/>
<path d="M49 68H55V72H49V68Z" fill="white"/>
<path d="M59 68H65V72H59V68Z" fill="white"/>
</svg>
