<svg width="96" height="95" viewBox="0 0 96 95" fill="none" xmlns="http://www.w3.org/2000/svg">
<rect x="0.5" width="95" height="95" rx="4" fill="white"/>
<path d="M23.5 40C23.5 26.1929 34.6929 15 48.5 15C62.3071 15 73.5 26.1929 73.5 40V79H23.5V40Z" fill="#E40032"/>
<path d="M23.5 39H73.5V41H23.5V39Z" fill="white"/>
<path d="M23.5 59H73.5V61H23.5V59Z" fill="white"/>
<path d="M49.5 41L49.5 79L47.5 79L47.5 41L49.5 41Z" fill="white"/>
<path d="M36.5 41L36.5 79L34.5 79L34.5 41L36.5 41Z" fill="white"/>
<path d="M62.5 41L62.5 79L60.5 79L60.5 41L62.5 41Z" fill="white"/>
<path d="M49.5 15L49.5 27L47.5 27L47.5 15L49.5 15Z" fill="white"/>
<path d="M54.9492 32.5435L66.043 21.4497L67.4572 22.8639L56.3634 33.9577L54.9492 32.5435Z" fill="white"/>
<path d="M42.082 32.5747L30.957 21.4497L29.5428 22.8639L40.6678 33.989L42.082 32.5747Z" fill="white"/>
<path fill-rule="evenodd" clip-rule="evenodd" d="M59.6742 39L48.5143 27.8401L37.3545 39H35.5013V39.996L34.5156 39.0104L35.9298 37.5962L47.1001 26.4259L48.5143 25.0117L49.9285 26.4259L61.0988 37.5962L62.513 39.0104L61.5013 40.0222V39H59.6742ZM49.5234 52H47.5052L48.5143 53.0091L49.5234 52Z" fill="white"/>
</svg>
