<svg width="95" height="95" viewBox="0 0 95 95" fill="none" xmlns="http://www.w3.org/2000/svg">
<rect width="95" height="95" fill="white"/>
<path d="M48 15L53.0943 19.1087L59.2867 16.9901L62.6685 22.5934L69.212 22.7205L70.4734 29.1425L76.5788 31.5L75.5678 37.9662L80.4987 42.2696L77.337 48L80.4987 53.7304L75.5678 58.0338L76.5788 64.5L70.4734 66.8575L69.212 73.2795L62.6685 73.4066L59.2867 79.0099L53.0943 76.8913L48 81L42.9057 76.8913L36.7133 79.0099L33.3315 73.4066L26.788 73.2795L25.5266 66.8575L19.4212 64.5L20.4322 58.0338L15.5013 53.7304L18.663 48L15.5013 42.2696L20.4322 37.9662L19.4212 31.5L25.5266 29.1425L26.788 22.7205L33.3315 22.5934L36.7133 16.9901L42.9057 19.1087L48 15Z" fill="#E40032"/>
<circle cx="48" cy="39" r="9" fill="white"/>
<path fill-rule="evenodd" clip-rule="evenodd" d="M30 58.7039L48.0004 51.4127L65.9995 58.7033C62.096 64.3127 55.4907 68 47.9996 68C40.5087 68 33.9036 64.313 30 58.7039Z" fill="white"/>
</svg>
