<svg width="24" height="24" viewBox="0 0 24 24" fill="none" xmlns="http://www.w3.org/2000/svg">
<g clip-path="url(#clip0_1601_23321)">
<rect width="24" height="24" fill="black"/>
<path fill-rule="evenodd" clip-rule="evenodd" d="M1.68707 1.68707C0 3.37413 0 6.0894 0 11.52V12.48C0 17.9106 0 20.6259 1.68707 22.313C3.37413 24 6.0894 24 11.52 24H12.48C17.9106 24 20.6259 24 22.313 22.313C24 20.6259 24 17.9106 24 12.48V11.52C24 6.0894 24 3.37413 22.313 1.68707C20.6259 0 17.9106 0 12.48 0H11.52C6.0894 0 3.37413 0 1.68707 1.68707ZM4.05029 7.30005C4.18029 13.54 7.30024 17.2901 12.7702 17.2901H13.0803V13.72C15.0903 13.92 16.6102 15.39 17.2202 17.2901H20.0603C19.2803 14.45 17.2302 12.88 15.9502 12.28C17.2302 11.54 19.0302 9.74005 19.4602 7.30005H16.8801C16.3201 9.28005 14.6603 11.08 13.0803 11.25V7.30005H10.5002V14.22C8.90024 13.82 6.88029 11.88 6.79029 7.30005H4.05029Z" fill="white"/>
</g>
<defs>
<clipPath id="clip0_1601_23321">
<rect width="24" height="24" rx="12" fill="white"/>
</clipPath>
</defs>
</svg>
