<svg width="24" height="25" viewBox="0 0 24 25" fill="none" xmlns="http://www.w3.org/2000/svg">
<path d="M10.0695 7.78571C9.63164 7.78571 9.24471 7.50087 9.11464 7.08278L8.40353 4.79707C8.20327 4.15339 8.68428 3.5 9.35839 3.5H9.92399C11.6876 3.5 13.2692 4.33011 14.2438 5.62595C15.0686 6.65142 16 9.27636 16 12.5C16 15.7236 15.0686 18.3486 14.2438 19.374C13.2692 20.6699 11.6876 21.5 9.92399 21.5H9.35839C8.68428 21.5 8.20328 20.8466 8.40353 20.2029L9.11464 17.9172C9.24471 17.4991 9.63164 17.2143 10.0695 17.2143H10.4444C11.549 17.2143 12.4444 16.3189 12.4444 15.2143V9.78571C12.4444 8.68114 11.549 7.78571 10.4444 7.78571H10.0695Z" stroke="black"/>
</svg>
