<svg width="24" height="24" viewBox="0 0 24 24" fill="none" xmlns="http://www.w3.org/2000/svg">
<g clip-path="url(#clip0_1601_23350)">
<g clip-path="url(#clip1_1601_23350)">
<rect x="1" y="1" width="22" height="22" fill="black"/>
<path fill-rule="evenodd" clip-rule="evenodd" d="M24 0H0V24H24V0ZM6.74602 4.43192C7.25418 4.23224 7.83546 4.0964 8.68666 4.05624C9.53994 4.01464 9.81194 4.00536 11.9846 4.0012C14.1572 3.99704 14.4313 4.00648 15.2828 4.04328C16.1343 4.08008 16.7159 4.21432 17.2251 4.41128C17.7519 4.61416 18.1987 4.88696 18.6438 5.33096C19.0889 5.77496 19.3633 6.22024 19.5689 6.74616C19.7684 7.2548 19.9039 7.83416 19.9444 8.68728C19.9849 9.5404 19.9947 9.81272 19.9988 11.9849C20.003 14.157 19.9942 14.4297 19.9569 15.2836C19.9199 16.1345 19.786 16.7164 19.5889 17.2252C19.3855 17.7522 19.1126 18.1986 18.6692 18.6441C18.2259 19.0895 17.7799 19.3638 17.254 19.5695C16.7455 19.7682 16.1675 19.9046 15.3142 19.945C14.4609 19.9855 14.1875 19.9951 12.0156 19.9993C9.84378 20.0034 9.5697 19.9948 8.71818 19.9575C7.86666 19.9202 7.28474 19.7862 6.77594 19.5895C6.24794 19.3857 5.80218 19.1132 5.3569 18.6695C4.91162 18.2258 4.6369 17.7802 4.43162 17.2543C4.23194 16.746 4.09658 16.1649 4.05594 15.3138C4.01466 14.4604 4.00506 14.1881 4.0009 12.0156C3.99674 9.84312 4.00506 9.56936 4.04266 8.71768C4.08026 7.866 4.2137 7.28424 4.41066 6.77496C4.61418 6.24824 4.8873 5.80216 5.33082 5.35704C5.77434 4.91192 6.2201 4.63688 6.74602 4.43192ZM7.29434 18.2463C7.57658 18.3548 8.0001 18.4844 8.7801 18.5183H8.78026C9.62394 18.5548 9.87594 18.5634 12.0123 18.5588C14.1486 18.5542 14.4014 18.5458 15.2451 18.5062C16.0241 18.469 16.4476 18.3378 16.7292 18.2279C17.1027 18.082 17.3687 17.9089 17.6481 17.6279C17.9275 17.347 18.1011 17.0806 18.2451 16.707C18.3537 16.4244 18.483 16.0007 18.5171 15.2207C18.554 14.3777 18.5615 14.1241 18.5577 11.9887C18.5539 9.85336 18.5447 9.6004 18.5046 8.75672C18.4678 7.97656 18.3369 7.55368 18.2267 7.27256C18.0807 6.89848 17.9075 6.63304 17.6263 6.35336C17.3452 6.07368 17.0791 5.90072 16.7052 5.75672C16.4235 5.64776 15.9993 5.51864 15.2199 5.48472C14.3759 5.4476 14.1225 5.4396 11.987 5.44424C9.85146 5.44888 9.59866 5.45688 8.75498 5.49688C7.9753 5.534 7.55226 5.66488 7.27034 5.77496C6.89706 5.92088 6.63066 6.094 6.35146 6.37512C6.07226 6.65624 5.89882 6.922 5.75482 7.29624C5.6465 7.57832 5.5161 8.00232 5.48282 8.78168C5.44586 9.62504 5.4377 9.87784 5.44234 12.0137C5.44698 14.1495 5.4553 14.4026 5.49498 15.2457C5.53146 16.0257 5.66346 16.4487 5.77306 16.731C5.91898 17.1039 6.09178 17.3711 6.37306 17.6497C6.65434 17.9282 6.92058 18.1023 7.29434 18.2463ZM15.4646 8.25767C15.3588 8.09997 15.3022 7.91444 15.3019 7.72456C15.3014 7.47001 15.4021 7.2257 15.5818 7.04538C15.7615 6.86505 16.0054 6.76347 16.2599 6.76296C16.4498 6.76258 16.6356 6.81852 16.7936 6.9237C16.9517 7.02889 17.0751 7.17859 17.1481 7.35388C17.2211 7.52917 17.2405 7.72217 17.2038 7.90848C17.1671 8.09478 17.0759 8.26602 16.9419 8.40053C16.8079 8.53505 16.637 8.62679 16.4508 8.66417C16.2647 8.70155 16.0716 8.68288 15.896 8.61052C15.7205 8.53816 15.5703 8.41537 15.4646 8.25767ZM12.0076 16.1078C9.7393 16.1121 7.89674 14.277 7.89226 12.0082C7.88794 9.73976 9.7233 7.89688 11.9919 7.8924C14.2606 7.88792 16.1036 9.72344 16.1079 11.9922C16.1123 14.261 14.2759 16.1034 12.0076 16.1078ZM9.77971 10.5229C9.48756 10.962 9.33218 11.4779 9.33322 12.0054C9.33387 12.3556 9.4035 12.7022 9.53814 13.0255C9.67278 13.3488 9.86979 13.6424 10.1179 13.8896C10.366 14.1367 10.6604 14.3326 10.9843 14.4659C11.3081 14.5993 11.655 14.6675 12.0052 14.6668C12.5326 14.6658 13.0479 14.5083 13.4859 14.2144C13.9238 13.9205 14.2648 13.5034 14.4657 13.0157C14.6665 12.528 14.7183 11.9917 14.6144 11.4747C14.5105 10.9576 14.2555 10.4829 13.8819 10.1107C13.5082 9.73849 13.0325 9.48545 12.515 9.38358C11.9975 9.28171 11.4614 9.33558 10.9746 9.53838C10.4877 9.74118 10.0719 10.0838 9.77971 10.5229Z" fill="white"/>
</g>
</g>
<defs>
<clipPath id="clip0_1601_23350">
<rect width="24" height="24" fill="white"/>
</clipPath>
<clipPath id="clip1_1601_23350">
<rect width="24" height="24" rx="12" fill="white"/>
</clipPath>
</defs>
</svg>
