<svg width="24" height="24" viewBox="0 0 24 24" xmlns="http://www.w3.org/2000/svg">
<path d="M11 4C11 5.04215 10.5423 6.78591 9.65963 8.2482C9.40317 8.67308 9.13297 9.12073 8.86281 9.59387C8.59052 10.0708 8.40061 10.5476 8.26972 11H4V18H9V17.9827C9.06466 17.9941 9.13107 18 9.19879 18L18 18C19 18 19.5 17.0987 19.5 16.5C19.5 16.3238 19.4798 16.1547 19.4426 15.9977C19.4621 15.9992 19.4813 16 19.5 16C20.0523 16 20.5 15.3284 20.5 14.5C20.5 14.1158 20.4037 13.7654 20.2454 13.5L20.5 13.5C21.0178 13.5 21.4436 12.9098 21.4948 12.1534C21.4983 12.1029 21.5 12.0518 21.5 12C21.5 11.1716 21.0523 10.5 20.5 10.5L20.2454 10.5C20.4037 10.2346 20.5 9.88418 20.5 9.5C20.5 8.67157 20 8 19 8H14V4.55022C14 2.19651 11.8 1.88831 11 2.02842V4Z" />
</svg>
