<svg width="24" height="24" viewBox="0 0 24 24" xmlns="http://www.w3.org/2000/svg">
	<g clip-path="url(#clip0_1601_23327)">
	<g clip-path="url(#clip1_1601_23327)">
	<rect x="4" y="3" width="16" height="18" fill="black"/>
	<path fill-rule="evenodd" clip-rule="evenodd" d="M20.5058 23.9995C22.4356 23.9995 24 22.4271 24 20.4875V3.51153C24 1.57194 22.4356 -0.000488281 20.5058 -0.000488281H3.4941C1.56441 -0.000488281 0 1.57188 0 3.51153V20.4875C0 22.4271 1.56434 23.9995 3.4941 23.9995H20.5058ZM7.63525 7.87281C7.63525 5.45727 9.58344 3.49902 11.9867 3.49902C14.39 3.49902 16.3382 5.45727 16.3382 7.87281C16.3382 10.2884 14.39 12.2468 11.9867 12.2468C9.58344 12.2468 7.63525 10.2884 7.63525 7.87281ZM10.1879 7.87287C10.1879 8.87139 10.9933 9.68095 11.9867 9.68095C12.9801 9.68095 13.7855 8.87139 13.7855 7.87287C13.7855 6.87434 12.9801 6.06484 11.9867 6.06484C10.9933 6.06484 10.1879 6.87434 10.1879 7.87287ZM16.3641 14.4965C16.3088 14.541 15.2649 15.3702 13.5228 15.7269L16.1524 18.3465C16.6149 18.8105 16.6154 19.5635 16.1537 20.0283C15.692 20.493 14.943 20.4938 14.4805 20.0296L11.9276 17.5308L9.60885 20.0135C9.3767 20.2556 9.06701 20.3773 8.75702 20.3773C8.46135 20.3773 8.16544 20.2667 7.93584 20.0442C7.46543 19.5883 7.4518 18.8354 7.90539 18.3626L10.4013 15.7408C8.61043 15.3925 7.52341 14.5416 7.46743 14.4965C6.95766 14.0856 6.87578 13.3371 7.28459 12.8247C7.69335 12.3123 8.43794 12.23 8.94783 12.6409C8.9586 12.6496 10.0954 13.508 11.9271 13.5094L11.9272 13.5094C11.9266 13.5093 11.9262 13.5093 11.9275 13.5093C11.9287 13.5093 11.9284 13.5093 11.9279 13.5094L11.9277 13.5094C13.7596 13.5081 14.8729 12.6496 14.8837 12.6409C15.3936 12.23 16.1382 12.3123 16.5469 12.8247C16.9557 13.3371 16.8738 14.0856 16.3641 14.4965Z" fill="white"/>
	</g>
	</g>
</svg>
