<svg width="24" height="24" viewBox="0 0 24 24" fill="none" xmlns="http://www.w3.org/2000/svg">
<path d="M10.0695 7.28571C9.63164 7.28571 9.24471 7.00087 9.11464 6.58278L8.40353 4.29707C8.20327 3.65339 8.68428 3 9.35839 3H9.92399C11.6876 3 13.2692 3.83011 14.2438 5.12595C15.0686 6.15142 16 8.77636 16 12C16 15.2236 15.0686 17.8486 14.2438 18.874C13.2692 20.1699 11.6876 21 9.92399 21H9.35839C8.68428 21 8.20328 20.3466 8.40353 19.7029L9.11464 17.4172C9.24471 16.9991 9.63164 16.7143 10.0695 16.7143H10.4444C11.549 16.7143 12.4444 15.8189 12.4444 14.7143V9.28571C12.4444 8.18114 11.549 7.28571 10.4444 7.28571H10.0695Z" fill="none"/>
</svg>
