<svg width="24" height="17" viewBox="0 0 24 17" fill="none" xmlns="http://www.w3.org/2000/svg">
<path fill-rule="evenodd" clip-rule="evenodd" d="M23 7C23 8.42967 21.9993 9.90889 19.9814 11.086C18.6446 11.8658 16.9361 12.4605 15 12.7677V13.7795C20.1757 13.0024 24 10.2617 24 7C24 3.13401 18.6274 0 12 0C5.37258 0 0 3.13401 0 7C0 10.2617 3.82432 13.0024 9 13.7795V12.7677C7.06389 12.4605 5.35541 11.8658 4.01859 11.086C2.00073 9.90889 1 8.42967 1 7C1 5.57033 2.00073 4.09111 4.01859 2.91403C6.0119 1.75127 8.83152 1 12 1C15.1685 1 17.9881 1.75127 19.9814 2.91403C21.9993 4.09111 23 5.57033 23 7Z" fill="black"/>
<path d="M12.6569 13.5L7 16.3284V10.6716L12.6569 13.5Z" fill="black"/>
</svg>
