<svg width="18" height="15" viewBox="0 0 18 15" xmlns="http://www.w3.org/2000/svg">
<path fill-rule="evenodd" clip-rule="evenodd" d="M1.23741 6.42173C6.06923 4.31658 9.29121 2.92873 10.9033 2.25819C15.5063 0.343672 16.4627 0.0110988 17.0861 0.00011709C17.2232 -0.00229822 17.5298 0.031682 17.7284 0.192819C17.8961 0.32888 17.9422 0.512679 17.9643 0.641679C17.9864 0.77068 18.0139 1.06455 17.992 1.29417C17.7426 3.915 16.6633 10.2751 16.1142 13.2105C15.8818 14.4525 15.4244 14.869 14.9815 14.9097C14.0189 14.9983 13.288 14.2736 12.3558 13.6625C10.897 12.7063 10.0729 12.111 8.65691 11.1779C7.02048 10.0995 8.08131 9.50682 9.0139 8.53818C9.25797 8.28469 13.4988 4.42729 13.5809 4.07736C13.5912 4.0336 13.6007 3.87046 13.5038 3.78432C13.4069 3.69818 13.2639 3.72764 13.1606 3.75107C13.0143 3.78427 10.6839 5.32459 6.16938 8.37203C5.5079 8.82625 4.90875 9.04757 4.37193 9.03597C3.78013 9.02318 2.64175 8.70136 1.79548 8.42627C0.757494 8.08886 -0.0674757 7.91047 0.00436067 7.33745C0.0417775 7.03898 0.452793 6.73374 1.23741 6.42173Z" stroke="none"/>
</svg>
