<svg width="24" height="24" viewBox="0 0 24 24" xmlns="http://www.w3.org/2000/svg">>
	<path d="M20.3815 7.53902C19.7929 7.8003 19.1604 7.97626 18.4965 8.05558C19.1744 7.64966 19.695 7.00646 19.9396 6.23995C19.3057 6.61587 18.6032 6.88915 17.8553 7.03645C17.2575 6.39858 16.4036 6 15.4598 6C13.3409 6 11.7839 7.97693 12.2625 10.0292C9.53571 9.89253 7.11754 8.58614 5.49854 6.60054C4.63871 8.07557 5.05263 10.0052 6.51366 10.9823C5.97644 10.965 5.46988 10.8177 5.02797 10.5717C4.99197 12.0921 6.08175 13.5145 7.66009 13.8311C7.19819 13.9564 6.69229 13.9857 6.17773 13.887C6.59498 15.1908 7.80673 16.1393 9.24377 16.1659C7.86405 17.2477 6.12574 17.7309 4.38477 17.5256C5.83713 18.4568 7.56278 19 9.41573 19C15.5091 19 18.9518 13.8537 18.7438 9.238C19.385 8.77476 19.9416 8.19688 20.3815 7.53902Z"/>
</svg>
