<svg width="24" height="24" viewBox="0 0 24 24" fill="none" xmlns="http://www.w3.org/2000/svg">
<circle cx="12" cy="12" r="8.5" stroke="black"/>
<path d="M4 12H20" stroke="black" stroke-linejoin="bevel"/>
<path d="M12 4L12 20" stroke="black" stroke-linejoin="bevel"/>
<path fill-rule="evenodd" clip-rule="evenodd" d="M18.884 6.20221C18.6175 6.40066 18.2972 6.59741 17.9168 6.78758C16.4543 7.51886 14.3638 8.00002 12.0001 8.00002C9.63638 8.00002 7.54589 7.51886 6.08333 6.78758C5.70299 6.59741 5.38267 6.40066 5.11611 6.20221C4.90173 6.45649 4.70118 6.72281 4.51562 7.00002C6.13015 8.20601 8.87966 9.00002 12.0001 9.00002C15.1205 9.00002 17.87 8.20601 19.4845 7.00002C19.299 6.72282 19.0984 6.45649 18.884 6.20221Z" fill="black"/>
<path fill-rule="evenodd" clip-rule="evenodd" d="M12.0006 20C11.148 20 10.1658 19.3661 9.33925 17.8783C8.53151 16.4244 8.00062 14.3481 8.00062 12C8.00062 9.65197 8.53151 7.57563 9.33925 6.1217C10.1658 4.6339 11.148 4.00002 12.0006 4.00002C12.0082 4.00002 12.0158 4.00007 12.0234 4.00017C11.6428 3.67819 11.2363 3.4268 10.8104 3.25659C8.62359 4.21779 7.00062 7.76775 7.00062 12C7.00062 16.2323 8.62358 19.7822 10.8104 20.7434C11.2363 20.5732 11.6428 20.3218 12.0234 19.9999C12.0158 20 12.0082 20 12.0006 20Z" fill="black"/>
<path fill-rule="evenodd" clip-rule="evenodd" d="M12.0228 20C12.8755 20 13.8576 19.3661 14.6842 17.8783C15.4919 16.4244 16.0228 14.3481 16.0228 12C16.0228 9.65197 15.4919 7.57563 14.6842 6.1217C13.8576 4.6339 12.8755 4.00002 12.0228 4.00002C12.0152 4.00002 12.0076 4.00007 12 4.00017C12.3806 3.67819 12.7871 3.4268 13.2131 3.25659C15.3999 4.21779 17.0228 7.76775 17.0228 12C17.0228 16.2323 15.3999 19.7822 13.2131 20.7434C12.7871 20.5732 12.3806 20.3218 12 19.9999C12.0076 20 12.0152 20 12.0228 20Z" fill="black"/>
<path fill-rule="evenodd" clip-rule="evenodd" d="M18.884 17.7978C18.6175 17.5993 18.2972 17.4026 17.9168 17.2124C16.4543 16.4811 14.3638 16 12.0001 16C9.63638 16 7.54589 16.4811 6.08333 17.2124C5.70299 17.4026 5.38267 17.5993 5.11611 17.7978C4.90173 17.5435 4.70118 17.2772 4.51562 17C6.13015 15.794 8.87966 15 12.0001 15C15.1205 15 17.87 15.794 19.4845 17C19.299 17.2772 19.0984 17.5435 18.884 17.7978Z" fill="black"/>
</svg>
