<svg width="18" height="18" viewBox="0 0 18 18"  xmlns="http://www.w3.org/2000/svg">
<g clip-path="url(#clip0_1566_5850)">
<path d="M0.0429688 18L1.30822 13.3777C0.527469 12.0247 0.117219 10.491 0.117969 8.91825C0.120219 4.00125 4.12147 0 9.03772 0C11.4235 0.00075 13.663 0.93 15.3475 2.616C17.0312 4.302 17.9582 6.543 17.9575 8.9265C17.9552 13.8443 13.954 17.8455 9.03772 17.8455C7.54522 17.8448 6.07447 17.4705 4.77172 16.7595L0.0429688 18V18ZM4.99072 15.1448C6.24772 15.891 7.44772 16.338 9.03472 16.3387C13.1207 16.3387 16.4492 13.0132 16.4515 8.925C16.453 4.8285 13.1402 1.5075 9.04072 1.506C4.95172 1.506 1.62547 4.8315 1.62397 8.919C1.62322 10.5878 2.11222 11.8372 2.93347 13.1445L2.18422 15.8805L4.99072 15.1448V15.1448ZM13.531 11.0468C13.4755 10.9538 13.327 10.8982 13.1035 10.7865C12.8807 10.6747 11.785 10.1355 11.5802 10.0612C11.3762 9.987 11.2277 9.9495 11.0785 10.173C10.93 10.3958 10.5025 10.8983 10.3727 11.0468C10.243 11.1953 10.1125 11.214 9.88972 11.1023C9.66697 10.9905 8.94847 10.7558 8.09722 9.996C7.43497 9.405 6.98722 8.67525 6.85747 8.45175C6.72772 8.229 6.84397 8.10825 6.95497 7.99725C7.05547 7.8975 7.17772 7.737 7.28947 7.6065C7.40272 7.4775 7.43947 7.3845 7.51447 7.23525C7.58872 7.08675 7.55197 6.95625 7.49572 6.8445C7.43947 6.7335 6.99397 5.63625 6.80872 5.19C6.62722 4.75575 6.44347 4.81425 6.30697 4.8075L5.87947 4.8C5.73097 4.8 5.48947 4.8555 5.28547 5.079C5.08147 5.3025 4.50547 5.841 4.50547 6.93825C4.50547 8.0355 5.30422 9.09525 5.41522 9.24375C5.52697 9.39225 6.98647 11.6438 9.22222 12.609C9.75397 12.8385 10.1695 12.9757 10.4927 13.0785C11.0267 13.248 11.5127 13.224 11.8967 13.167C12.325 13.1032 13.2152 12.6277 13.4012 12.1072C13.5872 11.586 13.5872 11.1398 13.531 11.0468V11.0468Z" stroke="none"/>
</g>
<defs>
<clipPath id="clip0_1566_5850">
<rect width="18" height="18" fill="white"/>
</clipPath>
</defs>
</svg>
