<svg width="24" height="24" viewBox="0 0 24 24" fill="none" xmlns="http://www.w3.org/2000/svg">
<g clip-path="url(#clip0_1601_23338)">
<rect x="3" y="4" width="18" height="16" rx="12" fill="black"/>
<path fill-rule="evenodd" clip-rule="evenodd" d="M24 0H0V24H24V0ZM19.146 7.33666C19.3953 7.58062 19.575 7.88478 19.6669 8.21859C19.9934 9.44412 20 12.0026 20 12.0026C20 12.0026 20 14.5611 19.6669 15.7866C19.5742 16.1194 19.3942 16.4225 19.1449 16.6655C18.8956 16.9085 18.5857 17.0829 18.2464 17.1713C16.9996 17.5 11.9967 17.5 11.9967 17.5C11.9967 17.5 6.99515 17.5 5.74837 17.1765C5.40945 17.0869 5.10042 16.9114 4.85226 16.6674C4.6041 16.4235 4.42551 16.1197 4.3344 15.7866C4 14.5611 4 12.0026 4 12.0026C4 12.0026 4 9.44412 4.3344 8.21859C4.42551 7.88544 4.6041 7.58168 4.85226 7.33774C5.10042 7.0938 5.40945 6.91826 5.74837 6.82871C6.99383 6.5 11.9967 6.5 11.9967 6.5C11.9967 6.5 16.9983 6.5 18.2464 6.82871C18.5864 6.91751 18.8966 7.09269 19.146 7.33666ZM14.5534 12.0026L10.3971 9.64471V14.3605L14.5534 12.0026Z" fill="white"/>
</g>
<defs>
<clipPath id="clip0_1601_23338">
<rect width="24" height="24" rx="12" fill="white"/>
</clipPath>

</defs>
</svg>
