<svg width="95" height="96" viewBox="0 0 95 96" fill="none" xmlns="http://www.w3.org/2000/svg"><path fill="#fff" d="M0 .5h95v95H0z"/><path d="M42.067 11.513a9.8 9.8 0 0111.867 0 9.801 9.801 0 007.171 1.922 9.8 9.8 0 0110.277 5.933 9.8 9.8 0 005.25 5.25 9.8 9.8 0 015.933 10.277 9.8 9.8 0 001.922 7.172 9.8 9.8 0 010 11.866 9.8 9.8 0 00-1.921 7.172 9.8 9.8 0 01-5.934 10.277 9.801 9.801 0 00-5.25 5.25 9.8 9.8 0 01-10.277 5.933 9.801 9.801 0 00-7.171 1.922 9.8 9.8 0 01-11.867 0 9.801 9.801 0 00-7.172-1.922 9.8 9.8 0 01-10.277-5.933 9.801 9.801 0 00-5.25-5.25 9.8 9.8 0 01-5.933-10.277 9.8 9.8 0 00-1.922-7.172 9.8 9.8 0 010-11.866 9.8 9.8 0 001.922-7.172 9.8 9.8 0 015.933-10.277 9.8 9.8 0 005.25-5.25 9.8 9.8 0 0110.277-5.933 9.801 9.801 0 007.172-1.922z" fill="#E40032"/><path d="M78 48c0 16.569-13.431 30-30 30-16.569 0-30-13.431-30-30 0-16.569 13.431-30 30-30 16.569 0 30 13.431 30 30z" fill="#fff"/><path d="M76 48c0 15.464-12.536 28-28 28S20 63.464 20 48s12.536-28 28-28 28 12.536 28 28z" fill="#E40032"/><path d="M48 26l5.948 14.49 15.926 1.057-12.25 10.012 3.895 15.144-13.52-8.303-13.518 8.303 3.894-15.144-12.25-10.012 15.926-1.056L48 26z" fill="#fff"/></svg>