<svg width="96" height="95" viewBox="0 0 96 95" fill="none" xmlns="http://www.w3.org/2000/svg"><rect x=".5" width="95" height="95" rx="4" fill="#fff"/><path fill-rule="evenodd" clip-rule="evenodd" d="M18.5 22c0 10.403 8.433 18.836 18.836 18.836 7.142 0 13.356-3.975 16.55-9.833a16.071 16.071 0 007.978 2.106c7.158 0 13.229-4.658 15.344-11.109H18.5z" fill="#E40032"/><path fill="#E40032" d="M58.59 45v10h-40V45z"/><path fill-rule="evenodd" clip-rule="evenodd" d="M75.5 45c-1.896-4.131-6.069-7-10.912-7-6.627 0-12 5.373-12 12s5.373 12 12 12c4.843 0 9.016-2.869 10.912-7h-6.912a4 4 0 01-4-4v-2a4 4 0 014-4H75.5zm-39 21l-11 10h-8l11-10h8zm11 0l-11 10h-8l11-10h8zm11 0l-11 10h-8l11-10h8zm11 0l-11 10h-8l11-10h8z" fill="#E40032"/><path d="M77.5 66v10h-16l11-10h5z" fill="#E40032"/></svg>