<svg width="96" height="95" viewBox="0 0 96 95" fill="none" xmlns="http://www.w3.org/2000/svg"><rect x=".5" width="95" height="95" rx="4" fill="#fff"/><path d="M27.5 41l16 9v18l-16 9-16-9V50l16-9zm34 0l16 9v18l-16 9-16-9V50l16-9zm-17-29l16 9v18l-16 9-16-9V21l16-9z" fill="#E40032"/><path d="M43.5 23h2v14h-2V23z" fill="#fff"/><path d="M51.063 32.634l-1 1.732-12.125-7 1-1.732 12.124 7z" fill="#fff"/><path d="M37.938 32.634l1 1.732 12.124-7-1-1.732-12.124 7zM23.487 56.618L27.5 51l4.013 5.618a5.3 5.3 0 01.987 3.08V60a5 5 0 01-10 0v-.301c0-1.105.345-2.182.987-3.081zM62.5 57l3-6h-4l-5 10h4l-3 6h4l5-10h-4z" fill="#fff"/></svg>