<svg width="95" height="95" viewBox="0 0 95 95" fill="none" xmlns="http://www.w3.org/2000/svg"><rect width="95" height="95" rx="4" fill="#fff"/><path d="M72 27.588L48 21v56l12.4-7.483A24 24 0 0072 48.97V27.59zm-48 0L48 21v56l-12.4-7.483A24 24 0 0124 48.97V27.59z" fill="#E40032"/><path d="M60 47c0 6.627-5.373 12-12 12s-12-5.373-12-12 5.373-12 12-12 12 5.373 12 12z" fill="#fff"/><path d="M48 33h14v14H48V33z" fill="#E40032"/><path fill-rule="evenodd" clip-rule="evenodd" d="M48 57c5.523 0 10-4.477 10-10s-4.477-10-10-10-10 4.477-10 10 4.477 10 10 10zm0 2c6.627 0 12-5.373 12-12s-5.373-12-12-12-12 5.373-12 12 5.373 12 12 12z" fill="#fff"/></svg>