<svg width="95" height="95" viewBox="0 0 95 95" fill="none" xmlns="http://www.w3.org/2000/svg"><rect width="95" height="95" rx="4" fill="#fff"/><path d="M13 37c0-11.046 8.954-20 20-20s20 8.954 20 20-8.954 20-20 20-20-8.954-20-20z" fill="#E40032"/><path fill-rule="evenodd" clip-rule="evenodd" d="M33 18c-10.493 0-19 8.507-19 19s8.507 19 19 19 19-8.507 19-19-8.507-19-19-19zm0-1c-11.046 0-20 8.954-20 20s8.954 20 20 20 20-8.954 20-20-8.954-20-20-20z" fill="#fff"/><path d="M40 37c0-11.046 8.954-20 20-20s20 8.954 20 20-8.954 20-20 20-20-8.954-20-20z" fill="#E40032"/><path fill-rule="evenodd" clip-rule="evenodd" d="M60 18c-10.493 0-19 8.507-19 19s8.507 19 19 19 19-8.507 19-19-8.507-19-19-19zm0-1c-11.046 0-20 8.954-20 20s8.954 20 20 20 20-8.954 20-20-8.954-20-20-20z" fill="#fff"/><path d="M26 62c0-11.046 8.954-20 20-20s20 8.954 20 20-8.954 20-20 20-20-8.954-20-20z" fill="#E40032"/><path fill-rule="evenodd" clip-rule="evenodd" d="M46 43c-10.493 0-19 8.507-19 19s8.507 19 19 19 19-8.507 19-19-8.507-19-19-19zm0-1c-11.046 0-20 8.954-20 20s8.954 20 20 20 20-8.954 20-20-8.954-20-20-20z" fill="#fff"/><path fill-rule="evenodd" clip-rule="evenodd" d="M33 19c-9.941 0-18 8.059-18 18 0 8.056 5.292 14.876 12.59 17.173a20.047 20.047 0 0113.228-11.495A20.003 20.003 0 0140 37c0-5.122 1.926-9.795 5.093-13.333A17.934 17.934 0 0033 19zm8.483 25.572A18.041 18.041 0 0029.555 54.67c1.115.217 2.267.33 3.445.33 4.655 0 8.897-1.767 12.093-4.667a20.007 20.007 0 01-3.61-5.761zm-14.584 11.48C18.837 53.473 13 45.918 13 37c0-11.046 8.954-20 20-20 5.203 0 9.942 1.987 13.5 5.244A19.928 19.928 0 0160 17c11.046 0 20 8.954 20 20 0 9.253-6.284 17.039-14.817 19.322.531 1.8.817 3.706.817 5.678 0 11.046-8.954 20-20 20s-20-8.954-20-20c0-2.071.315-4.069.9-5.948zm36.321.69c.507 1.663.78 3.429.78 5.258 0 9.941-8.059 18-18 18s-18-8.059-18-18c0-1.894.293-3.72.835-5.434A20.12 20.12 0 0033 57a19.93 19.93 0 0013.5-5.243A19.928 19.928 0 0060 57a20.15 20.15 0 003.22-.258zm1.297-2.313C72.272 52.423 78 45.38 78 37c0-9.941-8.059-18-18-18a17.934 17.934 0 00-12.093 4.667A19.925 19.925 0 0153 37c0 2.071-.315 4.069-.9 5.947a20.056 20.056 0 0112.417 11.481zM51.41 44.826a18.05 18.05 0 0111.104 9.999A18.15 18.15 0 0160 55a17.934 17.934 0 01-12.093-4.667 20.012 20.012 0 003.503-5.506zm-1.965-.498a18.015 18.015 0 01-2.945 4.577 18.012 18.012 0 01-3.014-4.732 18.15 18.15 0 015.96.155zm.72-1.895a20.152 20.152 0 00-7.385-.176A17.998 17.998 0 0142 37c0-4.565 1.7-8.733 4.5-11.906C49.3 28.267 51 32.435 51 37c0 1.894-.292 3.72-.835 5.434z" fill="#fff"/></svg>