<svg width="96" height="95" viewBox="0 0 96 95" fill="none" xmlns="http://www.w3.org/2000/svg"><rect x=".332" width="95" height="95" rx="4" fill="#fff"/><path d="M58.053 45L39 34 15 75.57l11.526 2.035 7.527 8.964 24-41.569z" fill="#E40032"/><path d="M37.998 45l19.053-11 24 41.57-11.526 2.035-7.527 8.964-24-41.569z" fill="#E40032"/><path d="M48.656 9.244l-.655-.567-.655.567-8.012 6.944-10.6-.17-.867-.013-.137.856-1.674 10.469-8.23 6.684-.672.547.445.743 5.447 9.096-2.007 10.41-.165.852.82.283 10.019 3.467 5.154 9.265.421.757.81-.31L48 65.342l9.904 3.784.81.31.42-.758 5.155-9.265 10.019-3.467.819-.283-.164-.851-2.007-10.41 5.447-9.097.445-.743-.673-.547-8.23-6.684-1.674-10.47-.137-.855-.866.014-10.6.169-8.013-6.944z" fill="#fff" stroke="#fff" stroke-width="2"/><path d="M48 10l8.3 7.194 10.984-.175 1.734 10.846 8.526 6.926-5.643 9.423L73.981 55 63.6 58.592l-5.34 9.599L48 64.27l-10.26 3.92-5.34-9.598L22.02 55l2.079-10.786-5.643-9.423 8.526-6.926 1.734-10.846 10.983.175L48 10z" fill="#E40032"/><circle cx="48.5" cy="39.5" r="18.5" fill="#fff"/><circle cx="48.5" cy="39.5" r="16.5" fill="#E40032"/></svg>