<svg width="96" height="95" viewBox="0 0 96 95" fill="none" xmlns="http://www.w3.org/2000/svg"><rect x=".668" width="95" height="95" rx="4" fill="#fff"/><path d="M44 18H18v26h9v-4a4 4 0 018 0v4h9V18zm4 9a4 4 0 010 8h-4v-8h4z" fill="#E40032"/><path d="M78 44V18H52v9h4a4 4 0 010 8h-4v9h26zm-9 4a4 4 0 01-8 0v-4h8v4z" fill="#E40032"/><path d="M52 78h26V52h-9v4a4 4 0 01-8 0v-4h-9v26zm-4-9a4 4 0 010-8h4v8h-4z" fill="#E40032"/><path d="M18 52v26h26v-9h-4a4 4 0 010-8h4v-9H18zm9-4a4 4 0 018 0v4h-8v-4z" fill="#E40032"/></svg>