<svg width="24" height="24" viewBox="0 0 24 24" fill="none" xmlns="http://www.w3.org/2000/svg"><g clip-path="url(#clip0_1601_23350)"><g clip-path="url(#clip1_1601_23350)"><path fill="#000" d="M1 1h22v22H1z"/><path fill-rule="evenodd" clip-rule="evenodd" d="M24 0H0v24h24V0zM6.746 4.432c.508-.2 1.09-.336 1.94-.376.854-.041 1.126-.05 3.299-.055 2.172-.004 2.446.005 3.298.042.851.037 1.433.171 1.942.368.527.203.974.476 1.419.92.445.444.72.89.925 1.415.2.509.335 1.088.375 1.941.04.853.05 1.126.055 3.298.004 2.172-.005 2.445-.042 3.299-.037.85-.171 1.432-.368 1.941a3.922 3.922 0 01-.92 1.42 3.92 3.92 0 01-1.415.925c-.509.198-1.087.335-1.94.375-.853.04-1.127.05-3.298.054-2.172.004-2.446-.004-3.298-.041-.851-.038-1.433-.172-1.942-.368a3.914 3.914 0 01-1.42-.92 3.92 3.92 0 01-.924-1.416c-.2-.508-.335-1.09-.376-1.94-.041-.854-.05-1.126-.055-3.298-.004-2.173.004-2.447.042-3.298.037-.852.17-1.434.368-1.943.203-.527.476-.973.92-1.418a3.92 3.92 0 011.415-.925zm.548 13.814c.283.109.706.238 1.486.272.844.037 1.096.045 3.232.04 2.137-.004 2.39-.012 3.233-.052.78-.037 1.203-.168 1.484-.278a2.47 2.47 0 00.92-.6c.278-.281.452-.547.596-.921.109-.283.238-.706.272-1.486.037-.843.044-1.097.04-3.232-.003-2.136-.012-2.389-.052-3.232-.037-.78-.168-1.203-.278-1.484a2.469 2.469 0 00-.6-.92 2.474 2.474 0 00-.922-.596c-.281-.11-.706-.238-1.485-.272-.844-.037-1.098-.045-3.233-.04-2.136.004-2.388.012-3.232.052-.78.037-1.203.168-1.485.278a2.47 2.47 0 00-.919.6 2.479 2.479 0 00-.596.921c-.109.282-.239.706-.272 1.486-.037.843-.045 1.096-.04 3.232.004 2.136.012 2.389.052 3.232.036.78.168 1.203.278 1.485.146.373.319.64.6.919a2.5 2.5 0 00.921.596zm8.17-9.988a.96.96 0 111.594-1.07.96.96 0 01-1.593 1.07zm-3.456 7.85a4.108 4.108 0 11-.016-8.215 4.108 4.108 0 01.016 8.215zM9.78 10.523a2.667 2.667 0 104.44 2.954 2.667 2.667 0 00-4.44-2.954z" fill="#fff"/></g></g><defs><clipPath id="clip0_1601_23350"><path fill="#fff" d="M0 0h24v24H0z"/></clipPath><clipPath id="clip1_1601_23350"><rect width="24" height="24" rx="12" fill="#fff"/></clipPath></defs></svg>