<svg width="240" height="94" viewBox="0 0 240 94" fill="none" xmlns="http://www.w3.org/2000/svg"><path d="M87.518 9.688L39.614 30.79v.096h95.711L87.518 9.688zM23.807 53.906V37.312l-18.699 8.25 18.7 8.344zm63.711 27.912L135.42 60.62H39.614l47.904 21.198z" fill="#E40032"/><path d="M100.819 51.988H83.566V34.722h-4.819v22.062h26.988V34.722h-4.916v17.266zM62.361 39.327h-4.819v17.457h4.916V39.518h13.397v-4.796H62.361v4.605zM32.482 26.09h-4.819v30.694h27.084V34.722H32.482V26.09zm17.35 13.428v12.47h-17.35v-12.47h17.35zm120.481 17.266h26.025V34.722h-26.025v22.062zm4.916-17.266h16.289v12.47h-16.289v-12.47zm-65.638 8.633h21.301v3.837h-21.301v4.796h26.12V43.355H114.41v-3.837h21.301v-4.796h-26.12v13.429zm117.011-13.429h-6.747l-6.843 7.386-6.843-7.386h-6.747l10.216 11.031-10.313 11.03h6.747l6.844-7.385 6.843 7.386h6.747l-10.217-11.03 10.313-11.032zm-82.216-8.632h-4.82v30.694h26.892V34.722h-22.072V26.09zm17.156 13.428v12.47h-17.156v-12.47h17.156z" fill="#000"/><path fill-rule="evenodd" clip-rule="evenodd" d="M229.302 30.023h.578c.385 0 .675.095.675.48 0 .19-.097.479-.579.479h-.674v-.96zm-.579 2.685v-3.165h1.446c.386 0 1.06.096 1.06.863 0 .192-.096.48-.482.768.386.095.386.48.482.767 0 .48 0 .575.097.767h-.579c-.096-.192-.096-.192-.096-.767 0-.288 0-.576-.675-.576h-.482v1.343h-.771zm-1.445-1.63a2.585 2.585 0 012.602-2.59c1.446 0 2.506 1.15 2.506 2.59 0 1.438-1.157 2.59-2.506 2.59-1.446.095-2.602-1.152-2.602-2.59zm-.579 0a3.14 3.14 0 003.181 3.165c1.735 0 3.084-1.439 3.084-3.165 0-1.727-1.349-3.07-3.084-3.07-1.831 0-3.181 1.439-3.181 3.07z" fill="#000"/></svg>