<svg width="24" height="24" viewBox="0 0 24 24" fill="none" xmlns="http://www.w3.org/2000/svg"><g clip-path="url(#clip0_1601_23327)"><g clip-path="url(#clip1_1601_23327)"><path fill="#000" d="M4 3h16v18H4z"/><path fill-rule="evenodd" clip-rule="evenodd" d="M20.506 24A3.503 3.503 0 0024 20.488V3.512A3.503 3.503 0 0020.506 0H3.494A3.503 3.503 0 000 3.512v16.976A3.503 3.503 0 003.494 24h17.012zM7.636 7.873c0-2.416 1.947-4.374 4.35-4.374 2.404 0 4.352 1.958 4.352 4.374 0 2.415-1.948 4.374-4.351 4.374-2.404 0-4.352-1.959-4.352-4.374zm2.552 0c0 .998.805 1.808 1.799 1.808.993 0 1.799-.81 1.799-1.808 0-.999-.806-1.808-1.8-1.808-.993 0-1.798.81-1.798 1.808zm6.176 6.623c-.055.045-1.1.874-2.841 1.23l2.63 2.62a1.194 1.194 0 010 1.682 1.179 1.179 0 01-1.672.002l-2.553-2.5-2.32 2.483a1.177 1.177 0 01-1.672.031 1.194 1.194 0 01-.03-1.681L10.4 15.74c-1.79-.348-2.878-1.2-2.934-1.245a1.193 1.193 0 01-.182-1.671 1.18 1.18 0 011.663-.184c.01.009 1.147.867 2.98.868-.001 0-.002 0 0 0 1.832 0 2.945-.86 2.956-.868a1.179 1.179 0 011.663.184c.409.512.327 1.26-.183 1.671z" fill="#fff"/></g></g><defs><clipPath id="clip0_1601_23327"><path fill="#fff" d="M0 0h24v24H0z"/></clipPath><clipPath id="clip1_1601_23327"><rect width="24" height="24" rx="12" fill="#fff"/></clipPath></defs></svg>