<svg width="95" height="95" viewBox="0 0 95 95" fill="none" xmlns="http://www.w3.org/2000/svg"><path fill="#fff" d="M0 0h95v95H0z"/><path d="M48 15l5.094 4.109 6.193-2.119 3.382 5.603 6.543.128 1.261 6.421L76.58 31.5l-1.011 6.466 4.93 4.304L77.338 48l3.162 5.73-4.931 4.304 1.01 6.466-6.105 2.358-1.261 6.421-6.544.128-3.381 5.603-6.193-2.119L48 81l-5.094-4.109-6.193 2.119-3.382-5.603-6.543-.127-1.261-6.422L19.42 64.5l1.011-6.466-4.93-4.304L18.662 48 15.5 42.27l4.931-4.304-1.01-6.466 6.105-2.358 1.261-6.421 6.543-.128 3.382-5.603 6.193 2.119L48 15z" fill="#E40032"/><circle cx="48" cy="39" r="9" fill="#fff"/><path fill-rule="evenodd" clip-rule="evenodd" d="M30 58.704l18-7.291 18 7.29C62.096 64.313 55.49 68 48 68c-7.491 0-14.096-3.687-18-9.296z" fill="#fff"/></svg>