<svg width="95" height="95" viewBox="0 0 95 95" fill="none" xmlns="http://www.w3.org/2000/svg"><rect width="95" height="95" rx="4" fill="#fff"/><path d="M27 25a4 4 0 014-4h34a4 4 0 014 4v48H27V25z" fill="#E40032"/><path d="M17 44a7 7 0 1114 0v29H17V44z" fill="#E40032"/><path d="M25 47h4v32h-4V47zm42 0h4v32h-4V47z" fill="#E40032"/><path d="M65 44a7 7 0 1114 0v29H65V44z" fill="#E40032"/><path d="M29 54.5a5.5 5.5 0 015.5-5.5h27a5.5 5.5 0 110 11h-27a5.5 5.5 0 01-5.5-5.5z" fill="#fff"/><path d="M29 58.5a6.5 6.5 0 016.5-6.5h25a6.5 6.5 0 110 13h-25a6.5 6.5 0 01-6.5-6.5z" fill="#E40032"/></svg>