<svg width="96" height="95" viewBox="0 0 96 95" fill="none" xmlns="http://www.w3.org/2000/svg"><rect x=".5" width="95" height="95" rx="4" fill="#fff"/><path d="M23.5 40c0-13.807 11.193-25 25-25s25 11.193 25 25v39h-50V40z" fill="#E40032"/><path d="M23.5 39h50v2h-50v-2zm0 20h50v2h-50v-2z" fill="#fff"/><path d="M49.5 41v38h-2V41h2zm-13 0v38h-2V41h2zm26 0v38h-2V41h2zm-13-26v12h-2V15h2zm5.45 17.544L66.042 21.45l1.414 1.414-11.094 11.094-1.414-1.414zm-12.868.031L30.957 21.45l-1.414 1.414 11.125 11.125 1.414-1.414z" fill="#fff"/><path fill-rule="evenodd" clip-rule="evenodd" d="M59.674 39l-11.16-11.16L37.354 39h-1.853v.996l-.985-.986 1.414-1.414 11.17-11.17 1.414-1.414 1.414 1.414 11.17 11.17 1.415 1.414-1.012 1.012V39h-1.827zm-10.15 13h-2.019l1.01 1.01L49.522 52z" fill="#fff"/></svg>