<svg width="96" height="95" viewBox="0 0 96 95" fill="none" xmlns="http://www.w3.org/2000/svg"><rect x=".5" width="95" height="95" rx="4" fill="#fff"/><path fill="#E40032" d="M17.5 34h62v24h-62z"/><path fill="#fff" d="M17.5 40h62v2h-62z"/><path fill="#E40032" stroke="#E40032" stroke-width="2" d="M45.5 59h6v22h-6z"/><path d="M36.5 20c6.627 0 12-5.373 12-12 0 6.627 5.373 12 12 12-6.627 0-12 5.373-12 12 0-6.627-5.373-12-12-12zm-11-7a5 5 0 005-5 5 5 0 005 5 5 5 0 00-5 5 5 5 0 00-5-5z" fill="#E40032"/></svg>