<svg width="95" height="95" viewBox="0 0 95 95" fill="none" xmlns="http://www.w3.org/2000/svg"><rect width="95" height="95" rx="4" fill="#fff"/><path d="M17 22h29v48H17V22zm33 0h29v48H50V22z" fill="#E40032"/><path d="M63.994 32h2v12h-2V32z" fill="#fff"/><path d="M69.69 34.134l1 1.732-10.393 6-1-1.732 10.392-6z" fill="#fff"/><path d="M60.299 34.134l-1 1.732 10.392 6 1-1.732-10.392-6zM83 73c0 6.075-15.894 11-35.5 11S12 79.075 12 73s15.894-11 35.5-11S83 66.925 83 73z" fill="#fff"/><path d="M17 71h29v2H17v-2z" fill="#E40032"/><path d="M19 61v12h-2V61h2zm27 0v12h-2V61h2zm6 0v12h-2V61h2zm27 0v12h-2V61h2z" fill="#E40032"/><path d="M50 71h29v2H50v-2z" fill="#E40032"/></svg>