<svg width="95" height="95" viewBox="0 0 95 95" fill="none" xmlns="http://www.w3.org/2000/svg"><rect width="95" height="95" rx="4" fill="#fff"/><path d="M18 17h18v12H18V17zm0 14h18v12H18V31zm0 14h18v12H18V45z" fill="#E40032"/><path d="M18 59h18v18H18V59z" fill="#fff"/><path d="M78 59v18H66V59h12zm-14 0v18H52V59h12zm-14 0v18H38V59h12zm-14 0v14a4 4 0 01-4 4H22a4 4 0 01-4-4V59h18zm25.047-37.775l12.728 12.728L50.728 57 38 44.272l23.047-23.047z" fill="#E40032"/><path d="M30 68a3 3 0 11-6 0 3 3 0 016 0z" fill="#fff"/><path d="M38 44l13 13H38V44z" fill="#E40032"/></svg>