<svg width="95" height="95" viewBox="0 0 95 95" fill="none" xmlns="http://www.w3.org/2000/svg"><path fill="#fff" d="M0 0h95v95H0z"/><path d="M14 21h68v54H14V21z" fill="#E40032"/><path fill-rule="evenodd" clip-rule="evenodd" d="M80 23H16v50h64V23zm-66-2v54h68V21H14z" fill="#E40032"/><path d="M14 21h68v16H14V21z" fill="#fff"/><path fill-rule="evenodd" clip-rule="evenodd" d="M80 23H16v12h64V23zm-66-2v16h68V21H14z" fill="#E40032"/><path d="M35 42h2v24h-2V42z" fill="#fff"/><path d="M48 53v2H24v-2h24zm20.31-14l1.733 1-17.311 29.983-1.732-1L68.31 39z" fill="#fff"/></svg>