<?xml version="1.0" encoding="utf-8"?><svg xmlns="http://www.w3.org/2000/svg" xmlns:xlink="http://www.w3.org/1999/xlink"><symbol fill="none" viewBox="0 0 6 6" id="arrow-left" xmlns="http://www.w3.org/2000/svg"><path d="M0 3l6 3V0L0 3z" fill="#000"/></symbol><symbol fill="none" viewBox="0 0 7 8" id="breadcrumb" xmlns="http://www.w3.org/2000/svg"><path d="M6 4L0 7V1l6 3z"/></symbol><symbol viewBox="0 0 24 24" id="copy" xmlns="http://www.w3.org/2000/svg"><path fill-rule="evenodd" clip-rule="evenodd" d="M11 3h7a1 1 0 011 1v10a1 1 0 01-1 1h-3v1h3a2 2 0 002-2V4a2 2 0 00-2-2h-7a2 2 0 00-2 2v4h1V4a1 1 0 011-1z"/><rect x="4.5" y="8.5" width="10" height="13" rx="1.5" fill="none"/></symbol><symbol fill="none" viewBox="0 0 24 24" id="copy-2" xmlns="http://www.w3.org/2000/svg"><path fill-rule="evenodd" clip-rule="evenodd" d="M11 3h7a1 1 0 011 1v10a1 1 0 01-1 1h-3v1h3a2 2 0 002-2V4a2 2 0 00-2-2h-7a2 2 0 00-2 2v4h1V4a1 1 0 011-1z" fill="#53555A"/><rect x="4.5" y="8.5" width="10" height="13" rx="1.5" stroke="#53555A"/></symbol><symbol fill="none" viewBox="0 0 24 24" id="facebook" xmlns="http://www.w3.org/2000/svg"><g clip-path="url(#eclip0_1601_23347)"><circle cx="12" cy="12" r="12" fill="#fff"/><path d="M10.438 12.969v7.03h3.124v-7.03h2.33l.444-2.908h-2.773V8.174c0-.796.387-1.572 1.63-1.572h1.26V4.126s-1.145-.196-2.238-.196c-2.284 0-3.777 1.393-3.777 3.914v2.217h-2.54v2.908h2.54z" fill="#000"/></g><defs><clipPath id="eclip0_1601_23347"><path fill="#fff" d="M0 0h24v24H0z"/></clipPath></defs></symbol><symbol fill="none" viewBox="0 0 24 24" id="instagram" xmlns="http://www.w3.org/2000/svg"><g clip-path="url(#fclip0_1601_23350)"><g clip-path="url(#fclip1_1601_23350)"><path fill="#000" d="M1 1h22v22H1z"/><path fill-rule="evenodd" clip-rule="evenodd" d="M24 0H0v24h24V0zM6.746 4.432c.508-.2 1.09-.336 1.94-.376.854-.041 1.126-.05 3.299-.055 2.172-.004 2.446.005 3.298.042.851.037 1.433.171 1.942.368.527.203.974.476 1.419.92.445.444.72.89.925 1.415.2.509.335 1.088.375 1.941.04.853.05 1.126.055 3.298.004 2.172-.005 2.445-.042 3.299-.037.85-.171 1.432-.368 1.941a3.922 3.922 0 01-.92 1.42 3.92 3.92 0 01-1.415.925c-.509.198-1.087.335-1.94.375-.853.04-1.127.05-3.298.054-2.172.004-2.446-.004-3.298-.041-.851-.038-1.433-.172-1.942-.368a3.914 3.914 0 01-1.42-.92 3.92 3.92 0 01-.924-1.416c-.2-.508-.335-1.09-.376-1.94-.041-.854-.05-1.126-.055-3.298-.004-2.173.004-2.447.042-3.298.037-.852.17-1.434.368-1.943.203-.527.476-.973.92-1.418a3.92 3.92 0 011.415-.925zm.548 13.814c.283.109.706.238 1.486.272.844.037 1.096.045 3.232.04 2.137-.004 2.39-.012 3.233-.052.78-.037 1.203-.168 1.484-.278a2.47 2.47 0 00.92-.6c.278-.281.452-.547.596-.921.109-.283.238-.706.272-1.486.037-.843.044-1.097.04-3.232-.003-2.136-.012-2.389-.052-3.232-.037-.78-.168-1.203-.278-1.484a2.469 2.469 0 00-.6-.92 2.474 2.474 0 00-.922-.596c-.281-.11-.706-.238-1.485-.272-.844-.037-1.098-.045-3.233-.04-2.136.004-2.388.012-3.232.052-.78.037-1.203.168-1.485.278a2.47 2.47 0 00-.919.6 2.479 2.479 0 00-.596.921c-.109.282-.239.706-.272 1.486-.037.843-.045 1.096-.04 3.232.004 2.136.012 2.389.052 3.232.036.78.168 1.203.278 1.485.146.373.319.64.6.919a2.5 2.5 0 00.921.596zm8.17-9.988a.96.96 0 111.594-1.07.96.96 0 01-1.593 1.07zm-3.456 7.85a4.108 4.108 0 11-.016-8.215 4.108 4.108 0 01.016 8.215zM9.78 10.523a2.667 2.667 0 104.44 2.954 2.667 2.667 0 00-4.44-2.954z" fill="#fff"/></g></g><defs><clipPath id="fclip0_1601_23350"><path fill="#fff" d="M0 0h24v24H0z"/></clipPath><clipPath id="fclip1_1601_23350"><rect width="24" height="24" rx="12" fill="#fff"/></clipPath></defs></symbol><symbol fill="none" viewBox="0 0 24 24" id="marker" xmlns="http://www.w3.org/2000/svg"><path d="M19.5 9.5c0 3.073-1.783 6.084-3.638 8.373a28.454 28.454 0 01-3.362 3.474 28.457 28.457 0 01-3.362-3.475C7.283 15.585 5.5 12.573 5.5 9.5a7 7 0 0114 0z"/><circle cx="12.5" cy="9.5" r="2.5"/></symbol><symbol fill="none" viewBox="0 0 24 24" id="odnoklassniki" xmlns="http://www.w3.org/2000/svg"><g clip-path="url(#hclip0_1601_23327)"><g clip-path="url(#hclip1_1601_23327)"><path fill="#000" d="M4 3h16v18H4z"/><path fill-rule="evenodd" clip-rule="evenodd" d="M20.506 24A3.503 3.503 0 0024 20.488V3.512A3.503 3.503 0 0020.506 0H3.494A3.503 3.503 0 000 3.512v16.976A3.503 3.503 0 003.494 24h17.012zM7.636 7.873c0-2.416 1.947-4.374 4.35-4.374 2.404 0 4.352 1.958 4.352 4.374 0 2.415-1.948 4.374-4.351 4.374-2.404 0-4.352-1.959-4.352-4.374zm2.552 0c0 .998.805 1.808 1.799 1.808.993 0 1.799-.81 1.799-1.808 0-.999-.806-1.808-1.8-1.808-.993 0-1.798.81-1.798 1.808zm6.176 6.623c-.055.045-1.1.874-2.841 1.23l2.63 2.62a1.194 1.194 0 010 1.682 1.179 1.179 0 01-1.672.002l-2.553-2.5-2.32 2.483a1.177 1.177 0 01-1.672.031 1.194 1.194 0 01-.03-1.681L10.4 15.74c-1.79-.348-2.878-1.2-2.934-1.245a1.193 1.193 0 01-.182-1.671 1.18 1.18 0 011.663-.184c.01.009 1.147.867 2.98.868-.001 0-.002 0 0 0 1.832 0 2.945-.86 2.956-.868a1.179 1.179 0 011.663.184c.409.512.327 1.26-.183 1.671z" fill="#fff"/></g></g><defs><clipPath id="hclip0_1601_23327"><path fill="#fff" d="M0 0h24v24H0z"/></clipPath><clipPath id="hclip1_1601_23327"><rect width="24" height="24" rx="12" fill="#fff"/></clipPath></defs></symbol><symbol fill="none" viewBox="0 0 24 24" id="phone" xmlns="http://www.w3.org/2000/svg"><path d="M10.07 7.286a1 1 0 01-.955-.703l-.711-2.286A1 1 0 019.358 3h.566c1.764 0 3.345.83 4.32 2.126C15.069 6.15 16 8.776 16 12c0 3.224-.931 5.849-1.756 6.874A5.395 5.395 0 019.924 21h-.566a1 1 0 01-.954-1.297l.71-2.286a1 1 0 01.955-.703h.375a2 2 0 002-2V9.286a2 2 0 00-2-2h-.375z"/></symbol><symbol fill="none" viewBox="0 0 18 18" id="search" xmlns="http://www.w3.org/2000/svg"><circle cx="7.125" cy="7.125" r="5.875"/><path d="M16.5 16.5l-4.875-4.875"/></symbol><symbol viewBox="0 0 18 15" id="telegram" xmlns="http://www.w3.org/2000/svg"><path fill-rule="evenodd" clip-rule="evenodd" d="M1.237 6.422c4.832-2.105 8.054-3.493 9.666-4.164C15.506.344 16.463.011 17.086 0c.137-.002.444.032.642.193.168.136.214.32.236.449.022.129.05.423.028.652-.25 2.621-1.329 8.981-1.878 11.917-.232 1.242-.69 1.658-1.133 1.699-.962.088-1.693-.636-2.625-1.248-1.459-.956-2.283-1.551-3.7-2.484-1.636-1.079-.575-1.671.358-2.64.244-.253 4.485-4.11 4.567-4.46.01-.044.02-.208-.077-.294s-.24-.056-.343-.033c-.147.033-2.477 1.574-6.992 4.621-.661.454-1.26.676-1.797.664-.592-.013-1.73-.335-2.577-.61C.757 8.09-.067 7.91.005 7.337c.037-.298.448-.603 1.232-.915z"/></symbol><symbol fill="none" viewBox="0 0 24 24" id="user" xmlns="http://www.w3.org/2000/svg"><rect x="9.5" y="6.5" width="5" height="7" rx="2.5"/><path d="M6.5 19.5L12 16l5.5 3.5"/><circle cx="12" cy="12" r="9.5"/></symbol><symbol fill="none" viewBox="0 0 24 24" id="vk" xmlns="http://www.w3.org/2000/svg"><g clip-path="url(#mclip0_1601_23321)"><rect width="24" height="24" rx="12" fill="#000"/><path fill-rule="evenodd" clip-rule="evenodd" d="M1.687 1.687C0 3.374 0 6.09 0 11.52v.96c0 5.43 0 8.146 1.687 9.833C3.374 24 6.09 24 11.52 24h.96c5.43 0 8.146 0 9.833-1.687C24 20.626 24 17.911 24 12.48v-.96c0-5.43 0-8.146-1.687-9.833C20.626 0 17.911 0 12.48 0h-.96C6.09 0 3.374 0 1.687 1.687zM4.05 7.3c.13 6.24 3.25 9.99 8.72 9.99h.31v-3.57c2.01.2 3.53 1.67 4.14 3.57h2.84c-.78-2.84-2.83-4.41-4.11-5.01 1.28-.74 3.08-2.54 3.51-4.98h-2.58c-.56 1.98-2.22 3.78-3.8 3.95V7.3H10.5v6.92c-1.6-.4-3.62-2.34-3.71-6.92H4.05z" fill="#fff"/></g><defs><clipPath id="mclip0_1601_23321"><rect width="24" height="24" rx="12" fill="#fff"/></clipPath></defs></symbol><symbol viewBox="0 0 18 18" id="whatsapp" xmlns="http://www.w3.org/2000/svg"><g clip-path="url(#nclip0_1566_5850)"><path d="M.043 18l1.265-4.622a8.9 8.9 0 01-1.19-4.46C.12 4.001 4.121 0 9.038 0a8.86 8.86 0 016.31 2.616 8.868 8.868 0 012.61 6.31c-.003 4.918-4.004 8.92-8.92 8.92a8.924 8.924 0 01-4.266-1.087L.043 18zm4.948-2.855c1.257.746 2.457 1.193 4.044 1.194 4.086 0 7.414-3.326 7.416-7.414a7.411 7.411 0 00-7.41-7.419c-4.09 0-7.416 3.325-7.417 7.413 0 1.669.488 2.918 1.31 4.226l-.75 2.736 2.807-.736zm8.54-4.098c-.056-.093-.204-.149-.428-.26-.222-.112-1.318-.652-1.523-.726-.204-.074-.352-.111-.502.112-.148.223-.575.725-.705.874-.13.148-.26.167-.483.055-.223-.111-.942-.346-1.793-1.106-.662-.591-1.11-1.32-1.24-1.544-.13-.223-.013-.344.098-.455.1-.1.223-.26.334-.39.114-.13.15-.223.225-.372.075-.148.038-.279-.018-.39-.057-.111-.502-1.209-.687-1.655-.182-.434-.366-.376-.502-.383L5.879 4.8a.817.817 0 00-.594.279c-.204.224-.78.762-.78 1.86 0 1.097.8 2.156.91 2.305.112.148 1.571 2.4 3.807 3.365.532.23.947.367 1.27.47.535.169 1.02.145 1.405.088.428-.064 1.318-.54 1.504-1.06.186-.521.186-.967.13-1.06z"/></g><defs><clipPath id="nclip0_1566_5850"><path fill="#fff" d="M0 0h18v18H0z"/></clipPath></defs></symbol><symbol fill="none" viewBox="0 0 24 24" id="youtube" xmlns="http://www.w3.org/2000/svg"><g clip-path="url(#oclip0_1601_23338)"><rect x="3" y="4" width="18" height="16" rx="12" fill="#000"/><path fill-rule="evenodd" clip-rule="evenodd" d="M24 0H0v24h24V0zm-4.854 7.337c.25.244.429.548.52.882.327 1.225.334 3.784.334 3.784s0 2.558-.333 3.784a1.964 1.964 0 01-.522.879c-.25.242-.56.417-.899.505-1.246.329-6.25.329-6.25.329s-5 0-6.248-.323a2.01 2.01 0 01-.896-.51 1.96 1.96 0 01-.518-.88C4 14.56 4 12.003 4 12.003s0-2.559.334-3.784a1.96 1.96 0 01.518-.881 2.01 2.01 0 01.896-.51C6.994 6.5 11.997 6.5 11.997 6.5s5.001 0 6.25.329c.34.089.65.264.899.508zm-4.593 4.666l-4.156-2.358v4.716l4.156-2.358z" fill="#fff"/></g><defs><clipPath id="oclip0_1601_23338"><rect width="24" height="24" rx="12" fill="#fff"/></clipPath></defs></symbol></svg>