<svg width="24" height="24" viewBox="0 0 24 24" fill="none" xmlns="http://www.w3.org/2000/svg"><g clip-path="url(#clip0_1601_23338)"><g clip-path="url(#clip1_1601_23338)"><path fill="#000" d="M3 4h18v16H3z"/><path fill-rule="evenodd" clip-rule="evenodd" d="M24 0H0v24h24V0zm-4.854 7.337c.25.244.429.548.52.882.327 1.225.334 3.784.334 3.784s0 2.558-.333 3.784a1.964 1.964 0 01-.522.879c-.25.242-.56.417-.899.505-1.246.329-6.25.329-6.25.329s-5 0-6.248-.323a2.01 2.01 0 01-.896-.51 1.96 1.96 0 01-.518-.88C4 14.56 4 12.003 4 12.003s0-2.559.334-3.784a1.96 1.96 0 01.518-.881 2.01 2.01 0 01.896-.51C6.994 6.5 11.997 6.5 11.997 6.5s5.001 0 6.25.329c.34.089.65.264.899.508zm-4.593 4.666l-4.156-2.358v4.716l4.156-2.358z" fill="#fff"/></g></g><defs><clipPath id="clip0_1601_23338"><path fill="#fff" d="M0 0h24v24H0z"/></clipPath><clipPath id="clip1_1601_23338"><rect width="24" height="24" rx="12" fill="#fff"/></clipPath></defs></svg>